<?xml version="1.0" encoding="utf-8"?>
<!-- Generator: Adobe Illustrator 19.0.0, SVG Export Plug-In . SVG Version: 6.00 Build 0)  -->
<svg version="1.1" id="Layer_1" xmlns="http://www.w3.org/2000/svg" xmlns:xlink="http://www.w3.org/1999/xlink" x="0px" y="0px"
	 viewBox="-205 297 200 200" style="enable-background:new -205 297 200 200;" xml:space="preserve">
<style type="text/css">
	.st0{fill:#F16347;}
	.st1{fill:#8BC248;}
	.st2{fill:#48AFE3;}
</style>
<g id="Layer_4">
	<path class="st0" d="M-68,474.8c-24.9,9.6-52.4,9.6-77.4,0c-4-1.6-5.8,4.9-1.8,6.5c25.9,9.9,55.1,9.9,81,0
		C-62.2,479.8-63.9,473.2-68,474.8L-68,474.8z"/>
	<path class="st0" d="M-67.7,465.5c-22.8,8.8-47.9,9.6-71.3,2.3c-2.8-0.9-4,3.5-1.2,4.3c24,7.5,50.2,6.7,73.6-2.3
		C-63.8,468.9-65,464.5-67.7,465.5L-67.7,465.5z"/>
	<path class="st0" d="M-64.2,479.8c6-9.9,4.5-21-1.7-30.4c-3.5-5.3-8.1-10.2-13.4-13.9c-3.6-2.5-6.9,3.3-3.4,5.8
		c0.1,0,0.1,0.1,0.2,0.2c0.8,0.6-0.5-0.4,0.2,0.1c0.9,0.7,1.7,1.4,2.6,2.2c2.6,2.3,5.1,4.9,7.1,7.8c5.4,7.5,7.5,16.4,2.5,24.7
		C-72.3,480.1-66.4,483.5-64.2,479.8L-64.2,479.8z"/>
	<path class="st0" d="M-126.8,319c-0.8-2-1.7-4-2.5-6c-0.7-1.7-2.2-2.9-4.1-2.3c-1.6,0.4-3.1,2.4-2.3,4.1c0.8,2,1.7,4,2.5,6
		c0.7,1.7,2.2,2.9,4.1,2.3C-127.5,322.7-126,320.7-126.8,319L-126.8,319z"/>
	<path class="st0" d="M-77.6,437.7c-0.9-2.1-1.7-4.2-2.6-6.3c-0.7-1.7-2.2-2.9-4.1-2.3c-1.6,0.4-3.1,2.4-2.3,4.1
		c0.9,2.1,1.7,4.2,2.6,6.3c0.7,1.7,2.2,2.9,4.1,2.3C-78.4,441.4-76.9,439.5-77.6,437.7L-77.6,437.7z"/>
	<path class="st0" d="M-146.1,325.7c19.4-14.7,45.5-17.7,67.6-7c18.1,8.8,30.8,25.8,34.8,45.4c3.5,17.1-0.8,35-10.6,49.3
		c-10.3,14.7-26.8,24.2-44.4,26.5c-1.8,0.3-2.8,2.6-2.3,4.1c0.5,1.9,2.3,2.6,4.1,2.3c21.8-3,41.2-16.2,52-35.3
		c10.3-18.2,12-40.7,4.5-60.2c-7.3-19.1-22.5-33.8-41.6-41.1c-22.4-8.5-48.4-4.4-67.4,10c-1.5,1.1-2.2,2.9-1.2,4.6
		C-149.8,325.9-147.6,326.8-146.1,325.7L-146.1,325.7z"/>
	<path class="st1" d="M-107.1,437c-1,2.3-2.8,4.2-5.3,5.2c-1.7,0.7-3.5,0.9-5.2,0.6c-0.2,0-0.4,0-0.5-0.1c-0.9-0.1-1.7-0.3-2.6-0.5
		c-13.3-2.7-25.7-9.7-35.3-19.8c-5.4-5.8-9.9-12.5-13-20.3c-3.2-7.7-4.9-15.7-5.1-23.6c-0.4-13.9,3.4-27.6,10.9-39.1
		c0.4-0.7,0.9-1.3,1.3-2l0,0c0.2-0.3,0.5-0.7,0.7-1l0,0c1-1.2,2.3-2.2,3.8-2.8c2.5-1,5.1-1,7.4,0c-16.6,16.9-22.5,42.7-12.9,65.9
		S-130.7,436.9-107.1,437z"/>
	<path class="st2" d="M-50.6,353c-12.8-31-48.4-45.7-79.3-32.9c-7.7,3.2-14.4,7.8-20,13.4c0.6,0.2,1.1,0.5,1.6,0.9l0,0
		c0.7,0.5,1.4,1.1,2.1,1.8c2.5,2.4,4.6,5.4,6,8.8c5.4,12.9-0.5,27.6-13.2,33.3c-4.4,2.1-6.6,7.1-5.2,11.7v0.1c0,0.2,0.1,0.4,0.2,0.7
		c0.7,2,1.4,3.9,2.2,5.8s1.7,3.9,2.6,5.7c0.1,0.3,0.3,0.5,0.4,0.8c2.2,4.1,7.2,6.1,11.7,4.6c0.2-0.1,0.5-0.2,0.7-0.3l0,0
		c12.8-4.5,27.1,1.8,32.3,14.4c1.4,3.5,2.1,7.1,2,10.6c0,0.9-0.1,1.7-0.2,2.5c-0.1,0.6-0.3,1.3-0.6,1.8c7.9,0,15.9-1.4,23.6-4.6
		C-52.5,419.6-37.7,384-50.6,353z M-94.9,338.9l4.3-10.4c0.7-1.7,2.2-2.9,4.1-2.3c1.6,0.4,3.1,2.4,2.3,4.1
		c-1.4,3.5-2.9,6.9-4.3,10.4c-0.7,1.7-2.2,2.9-4.1,2.3C-94.2,342.6-95.6,340.6-94.9,338.9z M-110,325.7c0-4.5,6.7-4.5,6.7,0v11.2
		c0,4.5-6.7,4.5-6.7,0V325.7L-110,325.7z M-126.9,326.1c1.9-0.5,3.5,0.7,4.1,2.3l4.3,10.4c0.7,1.7-0.8,3.7-2.3,4.1
		c-1.9,0.5-3.5-0.7-4.1-2.3c-1.4-3.5-2.9-6.9-4.3-10.4C-130,328.6-128.6,326.6-126.9,326.1z M-106.7,404.3
		c-15.5,0-28.1-12.6-28.1-28.1s12.6-28.1,28.1-28.1s28.1,12.6,28.1,28.1c0,10-5.2,18.7-13,23.7c-0.5,0.3-1,0.6-1.6,0.9
		c-0.2,0.1-0.4,0.2-0.5,0.3c-1.3,0.7-2.7,1.3-4.2,1.8c-0.1,0-0.3,0.1-0.4,0.1c-0.2,0-0.3,0.1-0.5,0.1s-0.4,0.1-0.5,0.1
		s-0.3,0.1-0.4,0.1c-0.2,0-0.3,0.1-0.5,0.1c-0.1,0-0.2,0-0.4,0.1C-102.6,404.1-104.6,404.3-106.7,404.3z M-100.6,413.4
		c4-3.9,7.9-7.8,11.9-11.7c2.1-2,5.3,1.1,3.2,3.2c-4,3.9-7.9,7.8-11.9,11.7C-99.5,418.6-102.7,415.4-100.6,413.4z M-97.3,421.3
		c3.9-3.9,7.8-7.8,11.7-11.7c2.1-2.1,5.2,1.1,3.2,3.2c-3.9,3.9-7.8,7.8-11.7,11.7C-96.1,426.5-99.3,423.4-97.3,421.3z M-79,420.7
		c-3.9,3.9-7.8,7.8-11.7,11.7c-2.1,2.1-5.2-1.1-3.2-3.2c3.9-3.9,7.8-7.8,11.7-11.7C-80.2,415.4-77,418.6-79,420.7z M-81.2,345.9
		c2.7-2.7,5.3-5.3,8-8c3.1-3.1,7.9,1.7,4.8,4.8c-2.7,2.7-5.3,5.3-8,8C-79.5,353.8-84.3,349-81.2,345.9z M-59,360
		c-3.5,1.4-6.9,2.9-10.4,4.3c-1.7,0.7-3.7-0.8-4.1-2.3c-0.5-1.9,0.7-3.5,2.3-4.1l10.4-4.3c1.7-0.7,3.7,0.8,4.1,2.3
		C-56.1,357.8-57.3,359.3-59,360z"/>
	<path class="st2" d="M-84.2,376.2c0,8-4.1,15-10.4,19l0,0l0,0l0,0l-3.1-4.8c1-0.7,1.9-1.4,2.8-2.3l-12.1-11.9v16.9
		c1.3,0,2.5-0.1,3.7-0.4l1.3,5.5l0,0l0,0c-1.5,0.4-3.1,0.5-4.8,0.5c-12.4,0-22.5-10.1-22.5-22.5s10.1-22.5,22.5-22.5
		C-94.3,353.7-84.2,363.8-84.2,376.2z"/>
</g>
</svg>
